<mxfile host="app.diagrams.net" agent="Mozilla/5.0 (Windows NT 10.0; Win64; x64) AppleWebKit/537.36 (KHTML, like Gecko) Chrome/131.0.0.0 Safari/537.36" version="26.0.2">
  <diagram name="Page-1" id="e56a1550-8fbb-45ad-956c-1786394a9013">
    <mxGraphModel dx="1290" dy="565" grid="1" gridSize="10" guides="1" tooltips="1" connect="1" arrows="1" fold="1" page="1" pageScale="1" pageWidth="1100" pageHeight="850" background="none" math="0" shadow="0">
      <root>
        <mxCell id="0" />
        <mxCell id="1" parent="0" />
        <mxCell id="2e49270ec7c68f3f-8" value="admin" style="swimlane;html=1;fontStyle=0;childLayout=stackLayout;horizontal=1;startSize=26;fillColor=#FAE5C7;horizontalStack=0;resizeParent=1;resizeLast=0;collapsible=1;marginBottom=0;swimlaneFillColor=#ffffff;align=center;rounded=0;shadow=0;comic=0;labelBackgroundColor=none;strokeWidth=1;fontFamily=Verdana;fontSize=13;swimlaneLine=1;glass=0;strokeColor=#0F8B8D;fontColor=#143642;" parent="1" vertex="1">
          <mxGeometry x="444" y="92" width="160" height="144" as="geometry" />
        </mxCell>
        <mxCell id="2e49270ec7c68f3f-9" value="admin_id" style="shape=partialRectangle;top=0;left=0;right=0;bottom=1;html=1;align=left;verticalAlign=middle;fillColor=none;spacingLeft=34;spacingRight=4;whiteSpace=wrap;overflow=hidden;rotatable=0;points=[[0,0.5],[1,0.5]];portConstraint=eastwest;dropTarget=0;fontStyle=5;fontSize=13;labelBackgroundColor=none;strokeColor=#0F8B8D;fontColor=#143642;" parent="2e49270ec7c68f3f-8" vertex="1">
          <mxGeometry y="26" width="160" height="30" as="geometry" />
        </mxCell>
        <mxCell id="2e49270ec7c68f3f-10" value="&lt;b&gt;PK&lt;/b&gt;" style="shape=partialRectangle;top=0;left=0;bottom=0;html=1;fillColor=none;align=left;verticalAlign=middle;spacingLeft=4;spacingRight=4;whiteSpace=wrap;overflow=hidden;rotatable=0;points=[];portConstraint=eastwest;part=1;fontSize=13;labelBackgroundColor=none;strokeColor=#0F8B8D;fontColor=#143642;" parent="2e49270ec7c68f3f-9" vertex="1" connectable="0">
          <mxGeometry width="30" height="30" as="geometry" />
        </mxCell>
        <mxCell id="2e49270ec7c68f3f-11" value="&lt;code&gt;&lt;font face=&quot;Helvetica&quot;&gt;name&lt;/font&gt;&lt;/code&gt;" style="shape=partialRectangle;top=0;left=0;right=0;bottom=0;html=1;align=left;verticalAlign=top;fillColor=none;spacingLeft=34;spacingRight=4;whiteSpace=wrap;overflow=hidden;rotatable=0;points=[[0,0.5],[1,0.5]];portConstraint=eastwest;dropTarget=0;fontSize=13;labelBackgroundColor=none;strokeColor=#0F8B8D;fontColor=#143642;" parent="2e49270ec7c68f3f-8" vertex="1">
          <mxGeometry y="56" width="160" height="26" as="geometry" />
        </mxCell>
        <mxCell id="2e49270ec7c68f3f-12" value="" style="shape=partialRectangle;top=0;left=0;bottom=0;html=1;fillColor=none;align=left;verticalAlign=top;spacingLeft=4;spacingRight=4;whiteSpace=wrap;overflow=hidden;rotatable=0;points=[];portConstraint=eastwest;part=1;fontSize=13;labelBackgroundColor=none;strokeColor=#0F8B8D;fontColor=#143642;" parent="2e49270ec7c68f3f-11" vertex="1" connectable="0">
          <mxGeometry width="30" height="26" as="geometry" />
        </mxCell>
        <mxCell id="2e49270ec7c68f3f-13" value="&lt;code&gt;&lt;font face=&quot;Helvetica&quot;&gt;password&lt;/font&gt;&lt;/code&gt;" style="shape=partialRectangle;top=0;left=0;right=0;bottom=0;html=1;align=left;verticalAlign=top;fillColor=none;spacingLeft=34;spacingRight=4;whiteSpace=wrap;overflow=hidden;rotatable=0;points=[[0,0.5],[1,0.5]];portConstraint=eastwest;dropTarget=0;fontSize=13;labelBackgroundColor=none;strokeColor=#0F8B8D;fontColor=#143642;" parent="2e49270ec7c68f3f-8" vertex="1">
          <mxGeometry y="82" width="160" height="26" as="geometry" />
        </mxCell>
        <mxCell id="2e49270ec7c68f3f-14" value="" style="shape=partialRectangle;top=0;left=0;bottom=0;html=1;fillColor=none;align=left;verticalAlign=top;spacingLeft=4;spacingRight=4;whiteSpace=wrap;overflow=hidden;rotatable=0;points=[];portConstraint=eastwest;part=1;fontSize=13;labelBackgroundColor=none;strokeColor=#0F8B8D;fontColor=#143642;" parent="2e49270ec7c68f3f-13" vertex="1" connectable="0">
          <mxGeometry width="30" height="26" as="geometry" />
        </mxCell>
        <mxCell id="2e49270ec7c68f3f-15" value="&lt;code&gt;&lt;font face=&quot;Helvetica&quot;&gt;created_at&lt;/font&gt;&lt;/code&gt;" style="shape=partialRectangle;top=0;left=0;right=0;bottom=0;html=1;align=left;verticalAlign=top;fillColor=none;spacingLeft=34;spacingRight=4;whiteSpace=wrap;overflow=hidden;rotatable=0;points=[[0,0.5],[1,0.5]];portConstraint=eastwest;dropTarget=0;fontSize=13;labelBackgroundColor=none;strokeColor=#0F8B8D;fontColor=#143642;" parent="2e49270ec7c68f3f-8" vertex="1">
          <mxGeometry y="108" width="160" height="26" as="geometry" />
        </mxCell>
        <mxCell id="2e49270ec7c68f3f-16" value="" style="shape=partialRectangle;top=0;left=0;bottom=0;html=1;fillColor=none;align=left;verticalAlign=top;spacingLeft=4;spacingRight=4;whiteSpace=wrap;overflow=hidden;rotatable=0;points=[];portConstraint=eastwest;part=1;fontSize=13;labelBackgroundColor=none;strokeColor=#0F8B8D;fontColor=#143642;" parent="2e49270ec7c68f3f-15" vertex="1" connectable="0">
          <mxGeometry width="30" height="26" as="geometry" />
        </mxCell>
        <mxCell id="2e49270ec7c68f3f-17" value="" style="shape=partialRectangle;top=0;left=0;right=0;bottom=0;html=1;align=left;verticalAlign=top;fillColor=none;spacingLeft=34;spacingRight=4;whiteSpace=wrap;overflow=hidden;rotatable=0;points=[[0,0.5],[1,0.5]];portConstraint=eastwest;dropTarget=0;fontSize=13;labelBackgroundColor=none;strokeColor=#0F8B8D;fontColor=#143642;" parent="2e49270ec7c68f3f-8" vertex="1">
          <mxGeometry y="134" width="160" height="10" as="geometry" />
        </mxCell>
        <mxCell id="2e49270ec7c68f3f-18" value="" style="shape=partialRectangle;top=0;left=0;bottom=0;html=1;fillColor=none;align=left;verticalAlign=top;spacingLeft=4;spacingRight=4;whiteSpace=wrap;overflow=hidden;rotatable=0;points=[];portConstraint=eastwest;part=1;fontSize=13;labelBackgroundColor=none;strokeColor=#0F8B8D;fontColor=#143642;" parent="2e49270ec7c68f3f-17" vertex="1" connectable="0">
          <mxGeometry width="30" height="10" as="geometry" />
        </mxCell>
        <mxCell id="2e49270ec7c68f3f-30" value="haz_prd_rpt" style="swimlane;html=1;fontStyle=0;childLayout=stackLayout;horizontal=1;startSize=26;fillColor=#FAE5C7;horizontalStack=0;resizeParent=1;resizeLast=0;collapsible=1;marginBottom=0;swimlaneFillColor=#ffffff;align=center;rounded=0;shadow=0;comic=0;labelBackgroundColor=none;strokeWidth=1;fontFamily=Verdana;fontSize=13;strokeColor=#0F8B8D;fontColor=#143642;" parent="1" vertex="1">
          <mxGeometry x="144" y="132" width="160" height="266" as="geometry" />
        </mxCell>
        <mxCell id="wCXckMe2eEmtba9I79JS-127" value="report_id" style="shape=partialRectangle;top=0;left=0;right=0;bottom=1;html=1;align=left;verticalAlign=middle;fillColor=none;spacingLeft=34;spacingRight=4;whiteSpace=wrap;overflow=hidden;rotatable=0;points=[[0,0.5],[1,0.5]];portConstraint=eastwest;dropTarget=0;fontStyle=5;fontSize=13;labelBackgroundColor=none;strokeColor=#0F8B8D;fontColor=#143642;" parent="2e49270ec7c68f3f-30" vertex="1">
          <mxGeometry y="26" width="160" height="30" as="geometry" />
        </mxCell>
        <mxCell id="wCXckMe2eEmtba9I79JS-128" value="&lt;b&gt;PK&lt;/b&gt;" style="shape=partialRectangle;top=0;left=0;bottom=0;html=1;fillColor=none;align=left;verticalAlign=middle;spacingLeft=4;spacingRight=4;whiteSpace=wrap;overflow=hidden;rotatable=0;points=[];portConstraint=eastwest;part=1;fontSize=13;labelBackgroundColor=none;strokeColor=#0F8B8D;fontColor=#143642;" parent="wCXckMe2eEmtba9I79JS-127" vertex="1" connectable="0">
          <mxGeometry width="30" height="30" as="geometry" />
        </mxCell>
        <mxCell id="2e49270ec7c68f3f-31" value="doc_no,&lt;div&gt;doc_cycl &lt;/div&gt;" style="shape=partialRectangle;top=0;left=0;right=0;bottom=1;html=1;align=left;verticalAlign=middle;fillColor=none;spacingLeft=34;spacingRight=4;whiteSpace=wrap;overflow=hidden;rotatable=0;points=[[0,0.5],[1,0.5]];portConstraint=eastwest;dropTarget=0;fontStyle=5;fontSize=13;labelBackgroundColor=none;strokeColor=#0F8B8D;fontColor=#143642;" parent="2e49270ec7c68f3f-30" vertex="1">
          <mxGeometry y="56" width="160" height="44" as="geometry" />
        </mxCell>
        <mxCell id="2e49270ec7c68f3f-32" value="&lt;b&gt;FK&lt;/b&gt;" style="shape=partialRectangle;top=0;left=0;bottom=0;html=1;fillColor=none;align=left;verticalAlign=middle;spacingLeft=4;spacingRight=4;whiteSpace=wrap;overflow=hidden;rotatable=0;points=[];portConstraint=eastwest;part=1;fontSize=13;labelBackgroundColor=none;strokeColor=#0F8B8D;fontColor=#143642;" parent="2e49270ec7c68f3f-31" vertex="1" connectable="0">
          <mxGeometry width="30" height="44" as="geometry" />
        </mxCell>
        <mxCell id="2e49270ec7c68f3f-33" value="&lt;code&gt;&lt;font face=&quot;Helvetica&quot;&gt;prdct_nm&lt;/font&gt;&lt;/code&gt;" style="shape=partialRectangle;top=0;left=0;right=0;bottom=0;html=1;align=left;verticalAlign=top;fillColor=none;spacingLeft=34;spacingRight=4;whiteSpace=wrap;overflow=hidden;rotatable=0;points=[[0,0.5],[1,0.5]];portConstraint=eastwest;dropTarget=0;fontSize=13;labelBackgroundColor=none;strokeColor=#0F8B8D;fontColor=#143642;" parent="2e49270ec7c68f3f-30" vertex="1">
          <mxGeometry y="100" width="160" height="26" as="geometry" />
        </mxCell>
        <mxCell id="2e49270ec7c68f3f-34" value="" style="shape=partialRectangle;top=0;left=0;bottom=0;html=1;fillColor=none;align=left;verticalAlign=top;spacingLeft=4;spacingRight=4;whiteSpace=wrap;overflow=hidden;rotatable=0;points=[];portConstraint=eastwest;part=1;fontSize=13;labelBackgroundColor=none;strokeColor=#0F8B8D;fontColor=#143642;" parent="2e49270ec7c68f3f-33" vertex="1" connectable="0">
          <mxGeometry width="30" height="26" as="geometry" />
        </mxCell>
        <mxCell id="lhJc6P_iqKGo1ascdRsg-50" value="&lt;code&gt;&lt;font face=&quot;Helvetica&quot;&gt;reporter_name&lt;/font&gt;&lt;/code&gt;" style="shape=partialRectangle;top=0;left=0;right=0;bottom=0;html=1;align=left;verticalAlign=top;fillColor=none;spacingLeft=34;spacingRight=4;whiteSpace=wrap;overflow=hidden;rotatable=0;points=[[0,0.5],[1,0.5]];portConstraint=eastwest;dropTarget=0;fontSize=13;labelBackgroundColor=none;strokeColor=#0F8B8D;fontColor=#143642;" parent="2e49270ec7c68f3f-30" vertex="1">
          <mxGeometry y="126" width="160" height="26" as="geometry" />
        </mxCell>
        <mxCell id="lhJc6P_iqKGo1ascdRsg-51" value="" style="shape=partialRectangle;top=0;left=0;bottom=0;html=1;fillColor=none;align=left;verticalAlign=top;spacingLeft=4;spacingRight=4;whiteSpace=wrap;overflow=hidden;rotatable=0;points=[];portConstraint=eastwest;part=1;fontSize=13;labelBackgroundColor=none;strokeColor=#0F8B8D;fontColor=#143642;" parent="lhJc6P_iqKGo1ascdRsg-50" vertex="1" connectable="0">
          <mxGeometry width="30" height="26" as="geometry" />
        </mxCell>
        <mxCell id="2e49270ec7c68f3f-35" value="&lt;code&gt;&lt;font face=&quot;Helvetica&quot;&gt;reporter_name&lt;/font&gt;&lt;/code&gt;" style="shape=partialRectangle;top=0;left=0;right=0;bottom=0;html=1;align=left;verticalAlign=top;fillColor=none;spacingLeft=34;spacingRight=4;whiteSpace=wrap;overflow=hidden;rotatable=0;points=[[0,0.5],[1,0.5]];portConstraint=eastwest;dropTarget=0;fontSize=13;labelBackgroundColor=none;strokeColor=#0F8B8D;fontColor=#143642;" parent="2e49270ec7c68f3f-30" vertex="1">
          <mxGeometry y="152" width="160" height="26" as="geometry" />
        </mxCell>
        <mxCell id="2e49270ec7c68f3f-36" value="" style="shape=partialRectangle;top=0;left=0;bottom=0;html=1;fillColor=none;align=left;verticalAlign=top;spacingLeft=4;spacingRight=4;whiteSpace=wrap;overflow=hidden;rotatable=0;points=[];portConstraint=eastwest;part=1;fontSize=13;labelBackgroundColor=none;strokeColor=#0F8B8D;fontColor=#143642;" parent="2e49270ec7c68f3f-35" vertex="1" connectable="0">
          <mxGeometry width="30" height="26" as="geometry" />
        </mxCell>
        <mxCell id="wCXckMe2eEmtba9I79JS-115" value="&lt;code&gt;&lt;font face=&quot;Helvetica&quot;&gt;reporter_contact&lt;/font&gt;&lt;/code&gt;" style="shape=partialRectangle;top=0;left=0;right=0;bottom=0;html=1;align=left;verticalAlign=top;fillColor=none;spacingLeft=34;spacingRight=4;whiteSpace=wrap;overflow=hidden;rotatable=0;points=[[0,0.5],[1,0.5]];portConstraint=eastwest;dropTarget=0;fontSize=13;labelBackgroundColor=none;strokeColor=#0F8B8D;fontColor=#143642;" parent="2e49270ec7c68f3f-30" vertex="1">
          <mxGeometry y="178" width="160" height="26" as="geometry" />
        </mxCell>
        <mxCell id="wCXckMe2eEmtba9I79JS-116" value="" style="shape=partialRectangle;top=0;left=0;bottom=0;html=1;fillColor=none;align=left;verticalAlign=top;spacingLeft=4;spacingRight=4;whiteSpace=wrap;overflow=hidden;rotatable=0;points=[];portConstraint=eastwest;part=1;fontSize=13;labelBackgroundColor=none;strokeColor=#0F8B8D;fontColor=#143642;" parent="wCXckMe2eEmtba9I79JS-115" vertex="1" connectable="0">
          <mxGeometry width="30" height="26" as="geometry" />
        </mxCell>
        <mxCell id="wCXckMe2eEmtba9I79JS-125" value="&lt;code&gt;&lt;font face=&quot;Helvetica&quot;&gt;report_date&lt;/font&gt;&lt;/code&gt;" style="shape=partialRectangle;top=0;left=0;right=0;bottom=0;html=1;align=left;verticalAlign=top;fillColor=none;spacingLeft=34;spacingRight=4;whiteSpace=wrap;overflow=hidden;rotatable=0;points=[[0,0.5],[1,0.5]];portConstraint=eastwest;dropTarget=0;fontSize=13;labelBackgroundColor=none;strokeColor=#0F8B8D;fontColor=#143642;" parent="2e49270ec7c68f3f-30" vertex="1">
          <mxGeometry y="204" width="160" height="26" as="geometry" />
        </mxCell>
        <mxCell id="wCXckMe2eEmtba9I79JS-126" value="" style="shape=partialRectangle;top=0;left=0;bottom=0;html=1;fillColor=none;align=left;verticalAlign=top;spacingLeft=4;spacingRight=4;whiteSpace=wrap;overflow=hidden;rotatable=0;points=[];portConstraint=eastwest;part=1;fontSize=13;labelBackgroundColor=none;strokeColor=#0F8B8D;fontColor=#143642;" parent="wCXckMe2eEmtba9I79JS-125" vertex="1" connectable="0">
          <mxGeometry width="30" height="26" as="geometry" />
        </mxCell>
        <mxCell id="2e49270ec7c68f3f-37" value="&lt;code&gt;&lt;font face=&quot;Helvetica&quot;&gt;status&lt;/font&gt;&lt;/code&gt;" style="shape=partialRectangle;top=0;left=0;right=0;bottom=0;html=1;align=left;verticalAlign=top;fillColor=none;spacingLeft=34;spacingRight=4;whiteSpace=wrap;overflow=hidden;rotatable=0;points=[[0,0.5],[1,0.5]];portConstraint=eastwest;dropTarget=0;fontSize=13;labelBackgroundColor=none;strokeColor=#0F8B8D;fontColor=#143642;" parent="2e49270ec7c68f3f-30" vertex="1">
          <mxGeometry y="230" width="160" height="26" as="geometry" />
        </mxCell>
        <mxCell id="2e49270ec7c68f3f-38" value="" style="shape=partialRectangle;top=0;left=0;bottom=0;html=1;fillColor=none;align=left;verticalAlign=top;spacingLeft=4;spacingRight=4;whiteSpace=wrap;overflow=hidden;rotatable=0;points=[];portConstraint=eastwest;part=1;fontSize=13;labelBackgroundColor=none;strokeColor=#0F8B8D;fontColor=#143642;" parent="2e49270ec7c68f3f-37" vertex="1" connectable="0">
          <mxGeometry width="30" height="26" as="geometry" />
        </mxCell>
        <mxCell id="2e49270ec7c68f3f-39" value="" style="shape=partialRectangle;top=0;left=0;right=0;bottom=0;html=1;align=left;verticalAlign=top;fillColor=none;spacingLeft=34;spacingRight=4;whiteSpace=wrap;overflow=hidden;rotatable=0;points=[[0,0.5],[1,0.5]];portConstraint=eastwest;dropTarget=0;fontSize=13;labelBackgroundColor=none;strokeColor=#0F8B8D;fontColor=#143642;" parent="2e49270ec7c68f3f-30" vertex="1">
          <mxGeometry y="256" width="160" height="10" as="geometry" />
        </mxCell>
        <mxCell id="2e49270ec7c68f3f-40" value="" style="shape=partialRectangle;top=0;left=0;bottom=0;html=1;fillColor=none;align=left;verticalAlign=top;spacingLeft=4;spacingRight=4;whiteSpace=wrap;overflow=hidden;rotatable=0;points=[];portConstraint=eastwest;part=1;fontSize=13;labelBackgroundColor=none;strokeColor=#0F8B8D;fontColor=#143642;" parent="2e49270ec7c68f3f-39" vertex="1" connectable="0">
          <mxGeometry width="30" height="10" as="geometry" />
        </mxCell>
        <mxCell id="2e49270ec7c68f3f-80" value="trg_haz_prd" style="swimlane;html=1;fontStyle=0;childLayout=stackLayout;horizontal=1;startSize=26;fillColor=#FAE5C7;horizontalStack=0;resizeParent=1;resizeLast=0;collapsible=1;marginBottom=0;swimlaneFillColor=#ffffff;align=center;rounded=0;shadow=0;comic=0;labelBackgroundColor=none;strokeWidth=1;fontFamily=Verdana;fontSize=13;strokeColor=#0F8B8D;fontColor=#143642;" parent="1" vertex="1">
          <mxGeometry x="444" y="282" width="160" height="236" as="geometry" />
        </mxCell>
        <mxCell id="2e49270ec7c68f3f-81" value="doc_no&lt;div&gt;&lt;code&gt;doc_cycl&lt;/code&gt;&lt;/div&gt;" style="shape=partialRectangle;top=0;left=0;right=0;bottom=1;html=1;align=left;verticalAlign=middle;fillColor=none;spacingLeft=34;spacingRight=4;whiteSpace=wrap;overflow=hidden;rotatable=0;points=[[0,0.5],[1,0.5]];portConstraint=eastwest;dropTarget=0;fontStyle=5;fontSize=13;labelBackgroundColor=none;strokeColor=#0F8B8D;fontColor=#143642;" parent="2e49270ec7c68f3f-80" vertex="1">
          <mxGeometry y="26" width="160" height="44" as="geometry" />
        </mxCell>
        <mxCell id="2e49270ec7c68f3f-82" value="&lt;b&gt;PK&lt;/b&gt;" style="shape=partialRectangle;top=0;left=0;bottom=0;html=1;fillColor=none;align=left;verticalAlign=middle;spacingLeft=4;spacingRight=4;whiteSpace=wrap;overflow=hidden;rotatable=0;points=[];portConstraint=eastwest;part=1;fontSize=13;labelBackgroundColor=none;strokeColor=#0F8B8D;fontColor=#143642;" parent="2e49270ec7c68f3f-81" vertex="1" connectable="0">
          <mxGeometry width="30" height="44" as="geometry" />
        </mxCell>
        <mxCell id="2e49270ec7c68f3f-83" value="prdct_nm" style="shape=partialRectangle;top=0;left=0;right=0;bottom=0;html=1;align=left;verticalAlign=top;fillColor=none;spacingLeft=34;spacingRight=4;whiteSpace=wrap;overflow=hidden;rotatable=0;points=[[0,0.5],[1,0.5]];portConstraint=eastwest;dropTarget=0;fontSize=13;labelBackgroundColor=none;strokeColor=#0F8B8D;fontColor=#143642;" parent="2e49270ec7c68f3f-80" vertex="1">
          <mxGeometry y="70" width="160" height="26" as="geometry" />
        </mxCell>
        <mxCell id="2e49270ec7c68f3f-84" value="" style="shape=partialRectangle;top=0;left=0;bottom=0;html=1;fillColor=none;align=left;verticalAlign=top;spacingLeft=4;spacingRight=4;whiteSpace=wrap;overflow=hidden;rotatable=0;points=[];portConstraint=eastwest;part=1;fontSize=13;labelBackgroundColor=none;strokeColor=#0F8B8D;fontColor=#143642;" parent="2e49270ec7c68f3f-83" vertex="1" connectable="0">
          <mxGeometry width="30" height="26" as="geometry" />
        </mxCell>
        <mxCell id="2e49270ec7c68f3f-85" value="prdct_type_nm" style="shape=partialRectangle;top=0;left=0;right=0;bottom=0;html=1;align=left;verticalAlign=top;fillColor=none;spacingLeft=34;spacingRight=4;whiteSpace=wrap;overflow=hidden;rotatable=0;points=[[0,0.5],[1,0.5]];portConstraint=eastwest;dropTarget=0;fontSize=13;labelBackgroundColor=none;strokeColor=#0F8B8D;fontColor=#143642;" parent="2e49270ec7c68f3f-80" vertex="1">
          <mxGeometry y="96" width="160" height="26" as="geometry" />
        </mxCell>
        <mxCell id="2e49270ec7c68f3f-86" value="" style="shape=partialRectangle;top=0;left=0;bottom=0;html=1;fillColor=none;align=left;verticalAlign=top;spacingLeft=4;spacingRight=4;whiteSpace=wrap;overflow=hidden;rotatable=0;points=[];portConstraint=eastwest;part=1;fontSize=13;labelBackgroundColor=none;strokeColor=#0F8B8D;fontColor=#143642;" parent="2e49270ec7c68f3f-85" vertex="1" connectable="0">
          <mxGeometry width="30" height="26" as="geometry" />
        </mxCell>
        <mxCell id="2e49270ec7c68f3f-87" value="plor_nm" style="shape=partialRectangle;top=0;left=0;right=0;bottom=0;html=1;align=left;verticalAlign=top;fillColor=none;spacingLeft=34;spacingRight=4;whiteSpace=wrap;overflow=hidden;rotatable=0;points=[[0,0.5],[1,0.5]];portConstraint=eastwest;dropTarget=0;fontSize=13;labelBackgroundColor=none;strokeColor=#0F8B8D;fontColor=#143642;" parent="2e49270ec7c68f3f-80" vertex="1">
          <mxGeometry y="122" width="160" height="26" as="geometry" />
        </mxCell>
        <mxCell id="2e49270ec7c68f3f-88" value="" style="shape=partialRectangle;top=0;left=0;bottom=0;html=1;fillColor=none;align=left;verticalAlign=top;spacingLeft=4;spacingRight=4;whiteSpace=wrap;overflow=hidden;rotatable=0;points=[];portConstraint=eastwest;part=1;fontSize=13;labelBackgroundColor=none;strokeColor=#0F8B8D;fontColor=#143642;" parent="2e49270ec7c68f3f-87" vertex="1" connectable="0">
          <mxGeometry width="30" height="26" as="geometry" />
        </mxCell>
        <mxCell id="lhJc6P_iqKGo1ascdRsg-1" value="mnftr_ymd" style="shape=partialRectangle;top=0;left=0;right=0;bottom=0;html=1;align=left;verticalAlign=top;fillColor=none;spacingLeft=34;spacingRight=4;whiteSpace=wrap;overflow=hidden;rotatable=0;points=[[0,0.5],[1,0.5]];portConstraint=eastwest;dropTarget=0;fontSize=13;labelBackgroundColor=none;strokeColor=#0F8B8D;fontColor=#143642;" parent="2e49270ec7c68f3f-80" vertex="1">
          <mxGeometry y="148" width="160" height="26" as="geometry" />
        </mxCell>
        <mxCell id="lhJc6P_iqKGo1ascdRsg-2" value="" style="shape=partialRectangle;top=0;left=0;bottom=0;html=1;fillColor=none;align=left;verticalAlign=top;spacingLeft=4;spacingRight=4;whiteSpace=wrap;overflow=hidden;rotatable=0;points=[];portConstraint=eastwest;part=1;fontSize=13;labelBackgroundColor=none;strokeColor=#0F8B8D;fontColor=#143642;" parent="lhJc6P_iqKGo1ascdRsg-1" vertex="1" connectable="0">
          <mxGeometry width="30" height="26" as="geometry" />
        </mxCell>
        <mxCell id="yKbIZxCOMHngaI-xLzHx-17" value="cert_nm" style="shape=partialRectangle;top=0;left=0;right=0;bottom=0;html=1;align=left;verticalAlign=top;fillColor=none;spacingLeft=34;spacingRight=4;whiteSpace=wrap;overflow=hidden;rotatable=0;points=[[0,0.5],[1,0.5]];portConstraint=eastwest;dropTarget=0;fontSize=13;labelBackgroundColor=none;strokeColor=#0F8B8D;fontColor=#143642;" vertex="1" parent="2e49270ec7c68f3f-80">
          <mxGeometry y="174" width="160" height="26" as="geometry" />
        </mxCell>
        <mxCell id="yKbIZxCOMHngaI-xLzHx-18" value="" style="shape=partialRectangle;top=0;left=0;bottom=0;html=1;fillColor=none;align=left;verticalAlign=top;spacingLeft=4;spacingRight=4;whiteSpace=wrap;overflow=hidden;rotatable=0;points=[];portConstraint=eastwest;part=1;fontSize=13;labelBackgroundColor=none;strokeColor=#0F8B8D;fontColor=#143642;" vertex="1" connectable="0" parent="yKbIZxCOMHngaI-xLzHx-17">
          <mxGeometry width="30" height="26" as="geometry" />
        </mxCell>
        <mxCell id="wCXckMe2eEmtba9I79JS-150" value="&lt;font face=&quot;Helvetica&quot;&gt;category_id&lt;/font&gt;" style="shape=partialRectangle;top=0;left=0;right=0;bottom=0;html=1;align=left;verticalAlign=top;fillColor=none;spacingLeft=34;spacingRight=4;whiteSpace=wrap;overflow=hidden;rotatable=0;points=[[0,0.5],[1,0.5]];portConstraint=eastwest;dropTarget=0;fontSize=13;labelBackgroundColor=none;strokeColor=#0F8B8D;fontColor=#143642;" parent="2e49270ec7c68f3f-80" vertex="1">
          <mxGeometry y="200" width="160" height="26" as="geometry" />
        </mxCell>
        <mxCell id="wCXckMe2eEmtba9I79JS-151" value="" style="shape=partialRectangle;top=0;left=0;bottom=0;html=1;fillColor=none;align=left;verticalAlign=top;spacingLeft=4;spacingRight=4;whiteSpace=wrap;overflow=hidden;rotatable=0;points=[];portConstraint=eastwest;part=1;fontSize=13;labelBackgroundColor=none;strokeColor=#0F8B8D;fontColor=#143642;" parent="wCXckMe2eEmtba9I79JS-150" vertex="1" connectable="0">
          <mxGeometry width="30" height="26" as="geometry" />
        </mxCell>
        <mxCell id="2e49270ec7c68f3f-89" value="" style="shape=partialRectangle;top=0;left=0;right=0;bottom=0;html=1;align=left;verticalAlign=top;fillColor=none;spacingLeft=34;spacingRight=4;whiteSpace=wrap;overflow=hidden;rotatable=0;points=[[0,0.5],[1,0.5]];portConstraint=eastwest;dropTarget=0;fontSize=13;labelBackgroundColor=none;strokeColor=#0F8B8D;fontColor=#143642;" parent="2e49270ec7c68f3f-80" vertex="1">
          <mxGeometry y="226" width="160" height="10" as="geometry" />
        </mxCell>
        <mxCell id="2e49270ec7c68f3f-90" value="" style="shape=partialRectangle;top=0;left=0;bottom=0;html=1;fillColor=none;align=left;verticalAlign=top;spacingLeft=4;spacingRight=4;whiteSpace=wrap;overflow=hidden;rotatable=0;points=[];portConstraint=eastwest;part=1;fontSize=13;labelBackgroundColor=none;strokeColor=#0F8B8D;fontColor=#143642;" parent="2e49270ec7c68f3f-89" vertex="1" connectable="0">
          <mxGeometry width="30" height="10" as="geometry" />
        </mxCell>
        <mxCell id="wCXckMe2eEmtba9I79JS-24" value="trg_company" style="swimlane;html=1;fontStyle=0;childLayout=stackLayout;horizontal=1;startSize=26;fillColor=#FAE5C7;horizontalStack=0;resizeParent=1;resizeLast=0;collapsible=1;marginBottom=0;swimlaneFillColor=#ffffff;align=center;rounded=0;shadow=0;comic=0;labelBackgroundColor=none;strokeWidth=1;fontFamily=Verdana;fontSize=13;strokeColor=#0F8B8D;fontColor=#143642;" parent="1" vertex="1">
          <mxGeometry x="744" y="161" width="190" height="186" as="geometry">
            <mxRectangle x="290" y="140" width="120" height="30" as="alternateBounds" />
          </mxGeometry>
        </mxCell>
        <mxCell id="wCXckMe2eEmtba9I79JS-83" value="&lt;div&gt;bzenty_sn&lt;/div&gt;&lt;div&gt;insp_inst_cd&lt;/div&gt;" style="shape=partialRectangle;top=0;left=0;right=0;bottom=1;html=1;align=left;verticalAlign=middle;fillColor=none;spacingLeft=60;spacingRight=4;whiteSpace=wrap;overflow=hidden;rotatable=0;points=[[0,0.5],[1,0.5]];portConstraint=eastwest;dropTarget=0;fontStyle=5;fontSize=13;labelBackgroundColor=none;strokeColor=#0F8B8D;fontColor=#143642;" parent="wCXckMe2eEmtba9I79JS-24" vertex="1">
          <mxGeometry y="26" width="190" height="40" as="geometry" />
        </mxCell>
        <mxCell id="wCXckMe2eEmtba9I79JS-84" value="PK" style="shape=partialRectangle;fontStyle=1;top=0;left=0;bottom=0;html=1;fillColor=none;align=left;verticalAlign=middle;spacingLeft=4;spacingRight=4;whiteSpace=wrap;overflow=hidden;rotatable=0;points=[];portConstraint=eastwest;part=1;fontSize=13;labelBackgroundColor=none;strokeColor=#0F8B8D;fontColor=#143642;" parent="wCXckMe2eEmtba9I79JS-83" vertex="1" connectable="0">
          <mxGeometry width="56" height="40" as="geometry" />
        </mxCell>
        <mxCell id="wCXckMe2eEmtba9I79JS-93" value="doc_no&lt;div&gt;&lt;code&gt;doc_cycl&lt;/code&gt;&lt;/div&gt;" style="shape=partialRectangle;top=0;left=0;right=0;bottom=1;html=1;align=left;verticalAlign=middle;fillColor=none;spacingLeft=60;spacingRight=4;whiteSpace=wrap;overflow=hidden;rotatable=0;points=[[0,0.5],[1,0.5]];portConstraint=eastwest;dropTarget=0;fontStyle=5;fontSize=13;labelBackgroundColor=none;strokeColor=#0F8B8D;fontColor=#143642;" parent="wCXckMe2eEmtba9I79JS-24" vertex="1">
          <mxGeometry y="66" width="190" height="44" as="geometry" />
        </mxCell>
        <mxCell id="wCXckMe2eEmtba9I79JS-94" value="PK,FK" style="shape=partialRectangle;fontStyle=1;top=0;left=0;bottom=0;html=1;fillColor=none;align=left;verticalAlign=middle;spacingLeft=4;spacingRight=4;whiteSpace=wrap;overflow=hidden;rotatable=0;points=[];portConstraint=eastwest;part=1;fontSize=13;labelBackgroundColor=none;strokeColor=#0F8B8D;fontColor=#143642;" parent="wCXckMe2eEmtba9I79JS-93" vertex="1" connectable="0">
          <mxGeometry width="56" height="44" as="geometry" />
        </mxCell>
        <mxCell id="wCXckMe2eEmtba9I79JS-87" value="&lt;code&gt;&lt;font face=&quot;Helvetica&quot;&gt;bzenty_type_nm&lt;/font&gt;&lt;/code&gt;" style="shape=partialRectangle;top=0;left=0;right=0;bottom=0;html=1;align=left;verticalAlign=top;fillColor=none;spacingLeft=60;spacingRight=4;whiteSpace=wrap;overflow=hidden;rotatable=0;points=[[0,0.5],[1,0.5]];portConstraint=eastwest;dropTarget=0;fontSize=13;labelBackgroundColor=none;strokeColor=#0F8B8D;fontColor=#143642;" parent="wCXckMe2eEmtba9I79JS-24" vertex="1">
          <mxGeometry y="110" width="190" height="20" as="geometry" />
        </mxCell>
        <mxCell id="wCXckMe2eEmtba9I79JS-88" value="" style="shape=partialRectangle;top=0;left=0;bottom=0;html=1;fillColor=none;align=left;verticalAlign=top;spacingLeft=4;spacingRight=4;whiteSpace=wrap;overflow=hidden;rotatable=0;points=[];portConstraint=eastwest;part=1;fontSize=13;labelBackgroundColor=none;strokeColor=#0F8B8D;fontColor=#143642;" parent="wCXckMe2eEmtba9I79JS-87" vertex="1" connectable="0">
          <mxGeometry width="56" height="20" as="geometry" />
        </mxCell>
        <mxCell id="lhJc6P_iqKGo1ascdRsg-37" value="&lt;code&gt;&lt;font face=&quot;Helvetica&quot;&gt;bzenty_nm&lt;/font&gt;&lt;/code&gt;" style="shape=partialRectangle;top=0;left=0;right=0;bottom=0;html=1;align=left;verticalAlign=top;fillColor=none;spacingLeft=60;spacingRight=4;whiteSpace=wrap;overflow=hidden;rotatable=0;points=[[0,0.5],[1,0.5]];portConstraint=eastwest;dropTarget=0;fontSize=13;labelBackgroundColor=none;strokeColor=#0F8B8D;fontColor=#143642;" parent="wCXckMe2eEmtba9I79JS-24" vertex="1">
          <mxGeometry y="130" width="190" height="20" as="geometry" />
        </mxCell>
        <mxCell id="lhJc6P_iqKGo1ascdRsg-38" value="" style="shape=partialRectangle;top=0;left=0;bottom=0;html=1;fillColor=none;align=left;verticalAlign=top;spacingLeft=4;spacingRight=4;whiteSpace=wrap;overflow=hidden;rotatable=0;points=[];portConstraint=eastwest;part=1;fontSize=13;labelBackgroundColor=none;strokeColor=#0F8B8D;fontColor=#143642;" parent="lhJc6P_iqKGo1ascdRsg-37" vertex="1" connectable="0">
          <mxGeometry width="56" height="20" as="geometry" />
        </mxCell>
        <mxCell id="lhJc6P_iqKGo1ascdRsg-39" value="&lt;code&gt;&lt;font face=&quot;Helvetica&quot;&gt;bzenty_addr&lt;/font&gt;&lt;/code&gt;" style="shape=partialRectangle;top=0;left=0;right=0;bottom=0;html=1;align=left;verticalAlign=top;fillColor=none;spacingLeft=60;spacingRight=4;whiteSpace=wrap;overflow=hidden;rotatable=0;points=[[0,0.5],[1,0.5]];portConstraint=eastwest;dropTarget=0;fontSize=13;labelBackgroundColor=none;strokeColor=#0F8B8D;fontColor=#143642;" parent="wCXckMe2eEmtba9I79JS-24" vertex="1">
          <mxGeometry y="150" width="190" height="36" as="geometry" />
        </mxCell>
        <mxCell id="lhJc6P_iqKGo1ascdRsg-40" value="" style="shape=partialRectangle;top=0;left=0;bottom=0;html=1;fillColor=none;align=left;verticalAlign=top;spacingLeft=4;spacingRight=4;whiteSpace=wrap;overflow=hidden;rotatable=0;points=[];portConstraint=eastwest;part=1;fontSize=13;labelBackgroundColor=none;strokeColor=#0F8B8D;fontColor=#143642;" parent="lhJc6P_iqKGo1ascdRsg-39" vertex="1" connectable="0">
          <mxGeometry width="56" height="36" as="geometry" />
        </mxCell>
        <mxCell id="wCXckMe2eEmtba9I79JS-39" value="trg_ncf_insp" style="swimlane;html=1;fontStyle=0;childLayout=stackLayout;horizontal=1;startSize=26;fillColor=#FAE5C7;horizontalStack=0;resizeParent=1;resizeLast=0;collapsible=1;marginBottom=0;swimlaneFillColor=#ffffff;align=center;rounded=0;shadow=0;comic=0;labelBackgroundColor=none;strokeWidth=1;fontFamily=Verdana;fontSize=13;strokeColor=#0F8B8D;fontColor=#143642;" parent="1" vertex="1">
          <mxGeometry x="744" y="415" width="190" height="200" as="geometry" />
        </mxCell>
        <mxCell id="wCXckMe2eEmtba9I79JS-147" value="&lt;div&gt;icpt_insp_sn&lt;/div&gt;&lt;div&gt;insp_inst_cd&lt;/div&gt;" style="shape=partialRectangle;top=0;left=0;right=0;bottom=1;html=1;align=left;verticalAlign=middle;fillColor=none;spacingLeft=60;spacingRight=4;whiteSpace=wrap;overflow=hidden;rotatable=0;points=[[0,0.5],[1,0.5]];portConstraint=eastwest;dropTarget=0;fontStyle=5;fontSize=13;labelBackgroundColor=none;strokeColor=#0F8B8D;fontColor=#143642;" parent="wCXckMe2eEmtba9I79JS-39" vertex="1">
          <mxGeometry y="26" width="190" height="40" as="geometry" />
        </mxCell>
        <mxCell id="wCXckMe2eEmtba9I79JS-148" value="PK" style="shape=partialRectangle;fontStyle=1;top=0;left=0;bottom=0;html=1;fillColor=none;align=left;verticalAlign=middle;spacingLeft=4;spacingRight=4;whiteSpace=wrap;overflow=hidden;rotatable=0;points=[];portConstraint=eastwest;part=1;fontSize=13;labelBackgroundColor=none;strokeColor=#0F8B8D;fontColor=#143642;" parent="wCXckMe2eEmtba9I79JS-147" vertex="1" connectable="0">
          <mxGeometry width="56" height="40" as="geometry" />
        </mxCell>
        <mxCell id="wCXckMe2eEmtba9I79JS-104" value="&lt;code&gt;doc_no&lt;/code&gt;&lt;div&gt;&lt;code&gt;doc_cycl&lt;/code&gt;&lt;/div&gt;" style="shape=partialRectangle;top=0;left=0;right=0;bottom=1;html=1;align=left;verticalAlign=middle;fillColor=none;spacingLeft=60;spacingRight=4;whiteSpace=wrap;overflow=hidden;rotatable=0;points=[[0,0.5],[1,0.5]];portConstraint=eastwest;dropTarget=0;fontStyle=5;fontSize=13;labelBackgroundColor=none;strokeColor=#0F8B8D;fontColor=#143642;" parent="wCXckMe2eEmtba9I79JS-39" vertex="1">
          <mxGeometry y="66" width="190" height="44" as="geometry" />
        </mxCell>
        <mxCell id="wCXckMe2eEmtba9I79JS-105" value="PK,FK" style="shape=partialRectangle;fontStyle=1;top=0;left=0;bottom=0;html=1;fillColor=none;align=left;verticalAlign=middle;spacingLeft=4;spacingRight=4;whiteSpace=wrap;overflow=hidden;rotatable=0;points=[];portConstraint=eastwest;part=1;fontSize=13;labelBackgroundColor=none;strokeColor=#0F8B8D;fontColor=#143642;" parent="wCXckMe2eEmtba9I79JS-104" vertex="1" connectable="0">
          <mxGeometry width="56" height="44" as="geometry" />
        </mxCell>
        <mxCell id="wCXckMe2eEmtba9I79JS-158" value="&lt;code&gt;&lt;font face=&quot;Helvetica&quot;&gt;icpt_insp_artcl_cn&lt;/font&gt;&lt;/code&gt;" style="shape=partialRectangle;top=0;left=0;right=0;bottom=0;html=1;align=left;verticalAlign=top;fillColor=none;spacingLeft=60;spacingRight=4;whiteSpace=wrap;overflow=hidden;rotatable=0;points=[[0,0.5],[1,0.5]];portConstraint=eastwest;dropTarget=0;fontSize=13;labelBackgroundColor=none;strokeColor=#0F8B8D;fontColor=#143642;" parent="wCXckMe2eEmtba9I79JS-39" vertex="1">
          <mxGeometry y="110" width="190" height="20" as="geometry" />
        </mxCell>
        <mxCell id="wCXckMe2eEmtba9I79JS-159" value="" style="shape=partialRectangle;top=0;left=0;bottom=0;html=1;fillColor=none;align=left;verticalAlign=top;spacingLeft=4;spacingRight=4;whiteSpace=wrap;overflow=hidden;rotatable=0;points=[];portConstraint=eastwest;part=1;fontSize=13;labelBackgroundColor=none;strokeColor=#0F8B8D;fontColor=#143642;" parent="wCXckMe2eEmtba9I79JS-158" vertex="1" connectable="0">
          <mxGeometry width="56" height="20" as="geometry" />
        </mxCell>
        <mxCell id="wCXckMe2eEmtba9I79JS-160" value="&lt;code&gt;&lt;font face=&quot;Helvetica&quot;&gt;icpt_insp_spcfct_cn&lt;/font&gt;&lt;/code&gt;" style="shape=partialRectangle;top=0;left=0;right=0;bottom=0;html=1;align=left;verticalAlign=top;fillColor=none;spacingLeft=60;spacingRight=4;whiteSpace=wrap;overflow=hidden;rotatable=0;points=[[0,0.5],[1,0.5]];portConstraint=eastwest;dropTarget=0;fontSize=13;labelBackgroundColor=none;strokeColor=#0F8B8D;fontColor=#143642;" parent="wCXckMe2eEmtba9I79JS-39" vertex="1">
          <mxGeometry y="130" width="190" height="20" as="geometry" />
        </mxCell>
        <mxCell id="wCXckMe2eEmtba9I79JS-161" value="" style="shape=partialRectangle;top=0;left=0;bottom=0;html=1;fillColor=none;align=left;verticalAlign=top;spacingLeft=4;spacingRight=4;whiteSpace=wrap;overflow=hidden;rotatable=0;points=[];portConstraint=eastwest;part=1;fontSize=13;labelBackgroundColor=none;strokeColor=#0F8B8D;fontColor=#143642;" parent="wCXckMe2eEmtba9I79JS-160" vertex="1" connectable="0">
          <mxGeometry width="56" height="20" as="geometry" />
        </mxCell>
        <mxCell id="wCXckMe2eEmtba9I79JS-162" value="&lt;code&gt;&lt;font face=&quot;Helvetica&quot;&gt;icpt_insp_rslt_cn&lt;/font&gt;&lt;/code&gt;" style="shape=partialRectangle;top=0;left=0;right=0;bottom=0;html=1;align=left;verticalAlign=top;fillColor=none;spacingLeft=60;spacingRight=4;whiteSpace=wrap;overflow=hidden;rotatable=0;points=[[0,0.5],[1,0.5]];portConstraint=eastwest;dropTarget=0;fontSize=13;labelBackgroundColor=none;strokeColor=#0F8B8D;fontColor=#143642;" parent="wCXckMe2eEmtba9I79JS-39" vertex="1">
          <mxGeometry y="150" width="190" height="20" as="geometry" />
        </mxCell>
        <mxCell id="wCXckMe2eEmtba9I79JS-163" value="" style="shape=partialRectangle;top=0;left=0;bottom=0;html=1;fillColor=none;align=left;verticalAlign=top;spacingLeft=4;spacingRight=4;whiteSpace=wrap;overflow=hidden;rotatable=0;points=[];portConstraint=eastwest;part=1;fontSize=13;labelBackgroundColor=none;strokeColor=#0F8B8D;fontColor=#143642;" parent="wCXckMe2eEmtba9I79JS-162" vertex="1" connectable="0">
          <mxGeometry width="56" height="20" as="geometry" />
        </mxCell>
        <mxCell id="wCXckMe2eEmtba9I79JS-164" value="&lt;code&gt;&lt;font face=&quot;Helvetica&quot;&gt;category_id &lt;/font&gt;&lt;/code&gt;" style="shape=partialRectangle;top=0;left=0;right=0;bottom=0;html=1;align=left;verticalAlign=top;fillColor=none;spacingLeft=60;spacingRight=4;whiteSpace=wrap;overflow=hidden;rotatable=0;points=[[0,0.5],[1,0.5]];portConstraint=eastwest;dropTarget=0;fontSize=13;labelBackgroundColor=none;strokeColor=#0F8B8D;fontColor=#143642;" parent="wCXckMe2eEmtba9I79JS-39" vertex="1">
          <mxGeometry y="170" width="190" height="30" as="geometry" />
        </mxCell>
        <mxCell id="wCXckMe2eEmtba9I79JS-165" value="" style="shape=partialRectangle;top=0;left=0;bottom=0;html=1;fillColor=none;align=left;verticalAlign=top;spacingLeft=4;spacingRight=4;whiteSpace=wrap;overflow=hidden;rotatable=0;points=[];portConstraint=eastwest;part=1;fontSize=13;labelBackgroundColor=none;strokeColor=#0F8B8D;fontColor=#143642;" parent="wCXckMe2eEmtba9I79JS-164" vertex="1" connectable="0">
          <mxGeometry width="56" height="30" as="geometry" />
        </mxCell>
        <mxCell id="wCXckMe2eEmtba9I79JS-135" value="category" style="swimlane;html=1;fontStyle=0;childLayout=stackLayout;horizontal=1;startSize=26;fillColor=#FAE5C7;horizontalStack=0;resizeParent=1;resizeLast=0;collapsible=1;marginBottom=0;swimlaneFillColor=#ffffff;align=center;rounded=0;shadow=0;comic=0;labelBackgroundColor=none;strokeWidth=1;fontFamily=Verdana;fontSize=13;swimlaneLine=1;strokeColor=#0F8B8D;fontColor=#143642;" parent="1" vertex="1">
          <mxGeometry x="594" y="642" width="160" height="92" as="geometry" />
        </mxCell>
        <mxCell id="wCXckMe2eEmtba9I79JS-136" value="category_id&amp;nbsp;" style="shape=partialRectangle;top=0;left=0;right=0;bottom=1;html=1;align=left;verticalAlign=middle;fillColor=none;spacingLeft=34;spacingRight=4;whiteSpace=wrap;overflow=hidden;rotatable=0;points=[[0,0.5],[1,0.5]];portConstraint=eastwest;dropTarget=0;fontStyle=5;fontSize=13;labelBackgroundColor=none;strokeColor=#0F8B8D;fontColor=#143642;" parent="wCXckMe2eEmtba9I79JS-135" vertex="1">
          <mxGeometry y="26" width="160" height="30" as="geometry" />
        </mxCell>
        <mxCell id="wCXckMe2eEmtba9I79JS-137" value="&lt;b&gt;PK&lt;/b&gt;" style="shape=partialRectangle;top=0;left=0;bottom=0;html=1;fillColor=none;align=left;verticalAlign=middle;spacingLeft=4;spacingRight=4;whiteSpace=wrap;overflow=hidden;rotatable=0;points=[];portConstraint=eastwest;part=1;fontSize=13;labelBackgroundColor=none;strokeColor=#0F8B8D;fontColor=#143642;" parent="wCXckMe2eEmtba9I79JS-136" vertex="1" connectable="0">
          <mxGeometry width="30" height="30" as="geometry" />
        </mxCell>
        <mxCell id="wCXckMe2eEmtba9I79JS-138" value="&lt;code&gt;&lt;font face=&quot;Helvetica&quot;&gt;category_name        &lt;/font&gt;&lt;/code&gt;" style="shape=partialRectangle;top=0;left=0;right=0;bottom=0;html=1;align=left;verticalAlign=top;fillColor=none;spacingLeft=34;spacingRight=4;whiteSpace=wrap;overflow=hidden;rotatable=0;points=[[0,0.5],[1,0.5]];portConstraint=eastwest;dropTarget=0;fontSize=13;labelBackgroundColor=none;strokeColor=#0F8B8D;fontColor=#143642;" parent="wCXckMe2eEmtba9I79JS-135" vertex="1">
          <mxGeometry y="56" width="160" height="26" as="geometry" />
        </mxCell>
        <mxCell id="wCXckMe2eEmtba9I79JS-139" value="" style="shape=partialRectangle;top=0;left=0;bottom=0;html=1;fillColor=none;align=left;verticalAlign=top;spacingLeft=4;spacingRight=4;whiteSpace=wrap;overflow=hidden;rotatable=0;points=[];portConstraint=eastwest;part=1;fontSize=13;labelBackgroundColor=none;strokeColor=#0F8B8D;fontColor=#143642;" parent="wCXckMe2eEmtba9I79JS-138" vertex="1" connectable="0">
          <mxGeometry width="30" height="26" as="geometry" />
        </mxCell>
        <mxCell id="wCXckMe2eEmtba9I79JS-144" value="" style="shape=partialRectangle;top=0;left=0;right=0;bottom=0;html=1;align=left;verticalAlign=top;fillColor=none;spacingLeft=34;spacingRight=4;whiteSpace=wrap;overflow=hidden;rotatable=0;points=[[0,0.5],[1,0.5]];portConstraint=eastwest;dropTarget=0;fontSize=13;labelBackgroundColor=none;strokeColor=#0F8B8D;fontColor=#143642;" parent="wCXckMe2eEmtba9I79JS-135" vertex="1">
          <mxGeometry y="82" width="160" height="10" as="geometry" />
        </mxCell>
        <mxCell id="wCXckMe2eEmtba9I79JS-145" value="" style="shape=partialRectangle;top=0;left=0;bottom=0;html=1;fillColor=none;align=left;verticalAlign=top;spacingLeft=4;spacingRight=4;whiteSpace=wrap;overflow=hidden;rotatable=0;points=[];portConstraint=eastwest;part=1;fontSize=13;labelBackgroundColor=none;strokeColor=#0F8B8D;fontColor=#143642;" parent="wCXckMe2eEmtba9I79JS-144" vertex="1" connectable="0">
          <mxGeometry width="30" height="10" as="geometry" />
        </mxCell>
        <mxCell id="wCXckMe2eEmtba9I79JS-172" value="" style="edgeStyle=elbowEdgeStyle;fontSize=13;html=1;endArrow=ERoneToMany;rounded=0;exitX=1;exitY=0.5;exitDx=0;exitDy=0;entryX=0;entryY=0.5;entryDx=0;entryDy=0;labelBackgroundColor=none;strokeColor=#A8201A;fontColor=default;" parent="1" source="2e49270ec7c68f3f-81" target="wCXckMe2eEmtba9I79JS-93" edge="1">
          <mxGeometry width="100" height="100" relative="1" as="geometry">
            <mxPoint x="164" y="591" as="sourcePoint" />
            <mxPoint x="264" y="491" as="targetPoint" />
          </mxGeometry>
        </mxCell>
        <mxCell id="wCXckMe2eEmtba9I79JS-173" value="" style="edgeStyle=elbowEdgeStyle;fontSize=13;html=1;endArrow=ERoneToMany;rounded=0;exitX=0.561;exitY=1.071;exitDx=0;exitDy=0;entryX=0;entryY=0.5;entryDx=0;entryDy=0;exitPerimeter=0;labelBackgroundColor=none;strokeColor=#A8201A;fontColor=default;" parent="1" source="2e49270ec7c68f3f-89" target="wCXckMe2eEmtba9I79JS-136" edge="1">
          <mxGeometry width="100" height="100" relative="1" as="geometry">
            <mxPoint x="164" y="581" as="sourcePoint" />
            <mxPoint x="264" y="491" as="targetPoint" />
            <Array as="points">
              <mxPoint x="534" y="582" />
            </Array>
          </mxGeometry>
        </mxCell>
        <mxCell id="wCXckMe2eEmtba9I79JS-174" value="" style="edgeStyle=elbowEdgeStyle;fontSize=13;html=1;endArrow=ERoneToMany;rounded=0;exitX=1;exitY=0.5;exitDx=0;exitDy=0;entryX=0;entryY=0.5;entryDx=0;entryDy=0;labelBackgroundColor=none;strokeColor=#A8201A;fontColor=default;" parent="1" source="2e49270ec7c68f3f-87" target="wCXckMe2eEmtba9I79JS-104" edge="1">
          <mxGeometry width="100" height="100" relative="1" as="geometry">
            <mxPoint x="164" y="591" as="sourcePoint" />
            <mxPoint x="264" y="491" as="targetPoint" />
          </mxGeometry>
        </mxCell>
        <mxCell id="wCXckMe2eEmtba9I79JS-175" value="" style="fontSize=13;html=1;endArrow=ERzeroToMany;endFill=1;rounded=0;exitX=0;exitY=0.5;exitDx=0;exitDy=0;edgeStyle=elbowEdgeStyle;entryX=1;entryY=0.5;entryDx=0;entryDy=0;labelBackgroundColor=none;strokeColor=#A8201A;fontColor=default;" parent="1" source="2e49270ec7c68f3f-81" target="wCXckMe2eEmtba9I79JS-127" edge="1">
          <mxGeometry width="100" height="100" relative="1" as="geometry">
            <mxPoint x="24" y="631" as="sourcePoint" />
            <mxPoint x="114" y="451" as="targetPoint" />
            <Array as="points">
              <mxPoint x="364" y="252" />
            </Array>
          </mxGeometry>
        </mxCell>
        <mxCell id="lhJc6P_iqKGo1ascdRsg-19" value="trg_add_info" style="swimlane;html=1;fontStyle=0;childLayout=stackLayout;horizontal=1;startSize=26;fillColor=#FAE5C7;horizontalStack=0;resizeParent=1;resizeLast=0;collapsible=1;marginBottom=0;swimlaneFillColor=#ffffff;align=center;rounded=0;shadow=0;comic=0;labelBackgroundColor=none;strokeWidth=1;fontFamily=Verdana;fontSize=13;strokeColor=#0F8B8D;fontColor=#143642;" parent="1" vertex="1">
          <mxGeometry x="230" y="560" width="190" height="150" as="geometry" />
        </mxCell>
        <mxCell id="lhJc6P_iqKGo1ascdRsg-22" value="detail_id" style="shape=partialRectangle;top=0;left=0;right=0;bottom=1;html=1;align=left;verticalAlign=middle;fillColor=none;spacingLeft=60;spacingRight=4;whiteSpace=wrap;overflow=hidden;rotatable=0;points=[[0,0.5],[1,0.5]];portConstraint=eastwest;dropTarget=0;fontStyle=5;fontSize=13;labelBackgroundColor=none;strokeColor=#0F8B8D;fontColor=#143642;" parent="lhJc6P_iqKGo1ascdRsg-19" vertex="1">
          <mxGeometry y="26" width="190" height="30" as="geometry" />
        </mxCell>
        <mxCell id="lhJc6P_iqKGo1ascdRsg-23" value="PK" style="shape=partialRectangle;fontStyle=1;top=0;left=0;bottom=0;html=1;fillColor=none;align=left;verticalAlign=middle;spacingLeft=4;spacingRight=4;whiteSpace=wrap;overflow=hidden;rotatable=0;points=[];portConstraint=eastwest;part=1;fontSize=13;labelBackgroundColor=none;strokeColor=#0F8B8D;fontColor=#143642;" parent="lhJc6P_iqKGo1ascdRsg-22" vertex="1" connectable="0">
          <mxGeometry width="56" height="30" as="geometry" />
        </mxCell>
        <mxCell id="lhJc6P_iqKGo1ascdRsg-20" value="&lt;code&gt;doc_no&lt;/code&gt;&lt;div&gt;&lt;code&gt;doc_cycl&lt;/code&gt;&lt;/div&gt;" style="shape=partialRectangle;top=0;left=0;right=0;bottom=1;html=1;align=left;verticalAlign=middle;fillColor=none;spacingLeft=60;spacingRight=4;whiteSpace=wrap;overflow=hidden;rotatable=0;points=[[0,0.5],[1,0.5]];portConstraint=eastwest;dropTarget=0;fontStyle=5;fontSize=13;labelBackgroundColor=none;strokeColor=#0F8B8D;fontColor=#143642;" parent="lhJc6P_iqKGo1ascdRsg-19" vertex="1">
          <mxGeometry y="56" width="190" height="44" as="geometry" />
        </mxCell>
        <mxCell id="lhJc6P_iqKGo1ascdRsg-21" value="PK,FK" style="shape=partialRectangle;fontStyle=1;top=0;left=0;bottom=0;html=1;fillColor=none;align=left;verticalAlign=middle;spacingLeft=4;spacingRight=4;whiteSpace=wrap;overflow=hidden;rotatable=0;points=[];portConstraint=eastwest;part=1;fontSize=13;labelBackgroundColor=none;strokeColor=#0F8B8D;fontColor=#143642;" parent="lhJc6P_iqKGo1ascdRsg-20" vertex="1" connectable="0">
          <mxGeometry width="56" height="44" as="geometry" />
        </mxCell>
        <mxCell id="lhJc6P_iqKGo1ascdRsg-24" value="rtrvl_rsn_nm" style="shape=partialRectangle;top=0;left=0;right=0;bottom=0;html=1;align=left;verticalAlign=top;fillColor=none;spacingLeft=60;spacingRight=4;whiteSpace=wrap;overflow=hidden;rotatable=0;points=[[0,0.5],[1,0.5]];portConstraint=eastwest;dropTarget=0;fontSize=13;labelBackgroundColor=none;strokeColor=#0F8B8D;fontColor=#143642;" parent="lhJc6P_iqKGo1ascdRsg-19" vertex="1">
          <mxGeometry y="100" width="190" height="20" as="geometry" />
        </mxCell>
        <mxCell id="lhJc6P_iqKGo1ascdRsg-25" value="" style="shape=partialRectangle;top=0;left=0;bottom=0;html=1;fillColor=none;align=left;verticalAlign=top;spacingLeft=4;spacingRight=4;whiteSpace=wrap;overflow=hidden;rotatable=0;points=[];portConstraint=eastwest;part=1;fontSize=13;labelBackgroundColor=none;strokeColor=#0F8B8D;fontColor=#143642;" parent="lhJc6P_iqKGo1ascdRsg-24" vertex="1" connectable="0">
          <mxGeometry width="56" height="20" as="geometry" />
        </mxCell>
        <mxCell id="lhJc6P_iqKGo1ascdRsg-26" value="barcd_no" style="shape=partialRectangle;top=0;left=0;right=0;bottom=0;html=1;align=left;verticalAlign=top;fillColor=none;spacingLeft=60;spacingRight=4;whiteSpace=wrap;overflow=hidden;rotatable=0;points=[[0,0.5],[1,0.5]];portConstraint=eastwest;dropTarget=0;fontSize=13;labelBackgroundColor=none;strokeColor=#0F8B8D;fontColor=#143642;" parent="lhJc6P_iqKGo1ascdRsg-19" vertex="1">
          <mxGeometry y="120" width="190" height="30" as="geometry" />
        </mxCell>
        <mxCell id="lhJc6P_iqKGo1ascdRsg-27" value="" style="shape=partialRectangle;top=0;left=0;bottom=0;html=1;fillColor=none;align=left;verticalAlign=top;spacingLeft=4;spacingRight=4;whiteSpace=wrap;overflow=hidden;rotatable=0;points=[];portConstraint=eastwest;part=1;fontSize=13;labelBackgroundColor=none;strokeColor=#0F8B8D;fontColor=#143642;" parent="lhJc6P_iqKGo1ascdRsg-26" vertex="1" connectable="0">
          <mxGeometry width="56" height="30" as="geometry" />
        </mxCell>
        <mxCell id="lhJc6P_iqKGo1ascdRsg-42" value="" style="edgeStyle=elbowEdgeStyle;fontSize=13;html=1;endArrow=ERoneToMany;rounded=0;exitX=0.006;exitY=1.188;exitDx=0;exitDy=0;exitPerimeter=0;labelBackgroundColor=none;strokeColor=#A8201A;fontColor=default;entryX=0.5;entryY=0;entryDx=0;entryDy=0;" parent="1" target="lhJc6P_iqKGo1ascdRsg-19" edge="1">
          <mxGeometry width="100" height="100" relative="1" as="geometry">
            <mxPoint x="444" y="414.99800000000005" as="sourcePoint" />
            <mxPoint x="330" y="570" as="targetPoint" />
            <Array as="points">
              <mxPoint x="325" y="450.11" />
              <mxPoint x="330" y="440.11" />
              <mxPoint x="359" y="472.11" />
              <mxPoint x="239.8" y="432.11" />
            </Array>
          </mxGeometry>
        </mxCell>
      </root>
    </mxGraphModel>
  </diagram>
</mxfile>
